<svg width="600" height="330" viewBox="0 0 600 330" fill="none" xmlns="http://www.w3.org/2000/svg">
<g clip-path="url(#clip0_28:255)">
<path d="M77.7164 98.932L79.6082 99.8417L81.4925 100.751L83.4751 102.25L84.5118 104.689L85.4501 104.643L86.3128 105.843H90.5202L92.3136 106.355L95.6054 106.233L97.6637 106.317L98.4658 107.181L99.7825 107.074L100.638 111.248L101.114 111.89L105.995 114.482L106.737 115.254L107.153 116.401L106.752 121.362L102.953 126.645L102.333 130.834L100.812 133.487L100.963 135.483L100.668 136.66L97.868 140.88L96.4983 141.216L95.734 140.161L93.5244 139.542L92.972 138.693L91.0726 141.491L88.757 142.661L86.2069 142.921L85.3215 143.884L86.9939 150.811L88.8554 154.182L89.09 155.229L86.6155 159.549L84.1259 161.674L83.127 162.997L82.2643 166.491L82.2341 167.997L83.2783 172.736L84.7313 176.949L81.5454 177.27L80.8114 177.966L80.5239 181.773L78.6169 186.192L78.6699 188.684L77.3002 191.26L75.6052 198.217L74.4322 200.449L70.921 200.954L69.4833 200.786L66.759 198.202L64.7689 197.032L61.3863 195.771L60.1226 194.066L54.7044 189.311L53.8115 189.387L52.3813 190.748L50.9208 191L47.9998 196.176L46.3048 197.139L45.3135 199.012L43.1795 200.029L41.265 198.63L39.358 198.133L32.6081 194.685L23.5349 190.664L22.3772 190.029L22.309 189.54L22.922 190.106L25.79 190.595L27.8331 192.078L30.8979 192.85L30.633 192.147L29.8763 191.727L28.098 191.933L26.8797 191.092L26.1986 190.381L26.6072 189.823L25.2376 189.609L24.4884 189.747L22.6496 188.057L21.0832 188.271L21.0151 188.974L20.6745 189.043L12.4187 185.312L11.2609 185.098L9.69445 184.112L9.89877 183.761L9.49014 183.195L7.98426 183.546L0.553223 180.443L2.06667 179.961L4.70007 181.268L5.65355 181.047L7.16699 178.967L7.59833 177.553L8.67288 177.43L9.11178 176.505L8.86206 175.871L7.49239 175.588L5.14654 171.36L3.30013 171.903L2.77799 171.207L3.14879 166.361L3.71633 165.206L4.36711 164.304L5.14654 163.662L4.99519 162.66L5.57787 162.209L4.29901 156.728L6.53135 154.977L7.80264 153.486L9.4296 150.046L10.0198 149.901L10.943 148.601L11.7225 146.315L14.8629 145.413L15.1353 144.679L15.4683 143.77L15.8845 143.227L20.7653 142.424L22.5815 141.155L23.5198 139.366L22.7328 136.132L22.8388 135.651L24.3749 135.024L24.7381 133.984L24.6473 130.911L25.9111 131.01L26.3802 130.292L28.5672 129.481L29.9444 128.87L30.2017 127.96L31.6924 126.653L34.0685 125.789L34.5074 125.2L35.4079 125.055L37.1711 124.718L38.2684 123.388L41.0531 122.219L42.1352 120.957L41.5601 119.696L41.7417 119.367L42.2336 119.673L44.0346 119.336L46.4107 117.899L47.402 115.911L48.5977 115.682L48.8928 114.252L49.4982 113.327L53.5618 111.546L55.7109 106.684L55.5822 105.767L56.6341 105.308L56.8384 104.551L57.7389 103.741L62.8089 103.328L64.0727 103.886H65.1926L66.0704 103.297L67.3417 101.325L68.4617 100.385L70.3762 100.033L72.7674 98.9702L74.4171 98.9472L74.9317 98.5344L77.7164 98.932Z" stroke="#FFFFFA" stroke-opacity="0.25" stroke-width="0.75"/>
<path d="M367.92 109.979L373.074 113.939L374.345 113.993L376.108 112.884L377.599 113.144L380.232 115.965L382.427 119.665L383.516 120.216L390.251 119.107L392.771 119.436L393.543 119.627L397.599 121.959L400.005 124.497L400.058 125.85L397.607 130.009L396.57 134.03L397.327 135.781L396.494 137.509L400.475 145.627L400.815 147.21L400.338 148.999L400.762 150.612L401.814 150.948L400.649 153.532L400.883 156.032L399.771 158.219L400.021 161.307L396.963 164.595L396.275 165.749L396.26 166.643L397.077 168.677L396.782 170.382L395.594 171.98L395.193 173.203L393.702 173.922L392.862 175.764L392.786 177.362L394.133 179.908L393.959 180.978L393.361 181.261L392.272 179.908L391.553 179.808L390.085 180.473L388.98 180.397L387.179 181.077L384.984 181.192L383.615 180.626L382.631 181.2L378.181 181.245L377.455 179.013L376.638 178.684L375.556 177.576L375.964 174.655L372.884 174.678L370.826 173.876L368.397 172.102L364.916 171.827L362.964 170.558L362.691 169.189L360.527 168.387L359.914 168.539L358.174 170.13H354.443L352.945 169.044L349.055 170.26L347.398 169.724L346.127 170.367L345.438 169.946L344.258 167.569L343.796 168.379L343.327 168.517L341.511 167.767L340.444 167.882L338.688 167.263L337.629 167.691L336.879 168.945L335.192 168.486L333.33 168.99L327.443 172.446L324.893 172.584L321.859 171.995L320.459 172.14L318.718 171.506L314.405 171.949L313.33 172.698L310.954 175.68L310.364 175.802H309.69L308.82 175.252L307.761 173.371L302.88 169.266L300.897 168.547L299.013 168.899L298.09 168.7L297.5 165.39L296.463 164.335L295.199 163.738L294.685 162.989L294.821 161.529L293.996 158.479L291.529 156.59L290.084 154.985L289.44 154.794L287.889 155.191L285.876 154.045L281.911 150.941L280.118 148.724L279.747 148.731L279.77 145.146L280.36 142.401L284.998 137.868L288.593 131.071L290.197 131.951L290.613 132.99L290.454 133.762L291.158 133.915L293.148 135.59L293.444 135.559L293.406 134.871L292.74 133.571L292.036 132.983L293.126 131.683L295.214 130.72L295.971 130.812L296.047 131.53L296.705 131.469L296.417 132.157L296.856 132.432L297.742 132.104L299.724 132.318L301.026 133.097L304.537 132.952L305.982 132.073L307.882 131.568L308.616 132.134L310.667 130.49L312.225 129.864L312.952 128.052L315.426 127.761L315.661 128.044L315.04 129.535L316.637 128.625L319.021 128.258L320.981 125.751L321.843 125.514L322.933 124.252L323.069 125.445L323.561 125.773L326.497 124.183L327.087 124.214L327.534 124.711L328.109 124.634L329.501 123.526L333.837 121.217L334.602 120.514L335.442 118.916L337.893 117.899L338.9 116.668L341.443 116.171L344.522 116.08L354.662 112.8L354.98 111.753L356.6 112.746L357.356 112.571L359.717 110.873L361.798 111.684L362.722 110.805L365.151 111.149L366.013 110.04L367.92 109.979Z" stroke="#FFFFFA" stroke-opacity="0.25" stroke-width="0.75"/>
<path d="M242.281 29.1716L246.443 28.8429L254.018 26.817L255.214 26.9011L257.325 28.6365L263.84 31.4728L266.095 31.641L269.168 33.7892L270.28 36.2968L270.931 41.029L269.38 43.85L270.015 45.249L279.126 51.1051L283.023 57.5803L282.963 58.643L282.07 59.6598L282.63 60.7377L284.832 61.1964L287.488 63.2988L294.442 63.4134L299.202 63.0618L301.677 65.9974L305.241 67.6488L308.586 68.5279L309.955 69.5218L312.929 77.4267L316.281 83.0151L320.928 93.5881L322.91 94.8419L324.991 95.0407L329.819 94.5285L335.669 93.2135L337.182 93.1677L338.673 93.7334L342.154 97.1583L346.059 103.481L347.534 105.193L353.126 110.659L354.98 111.753L354.663 112.8L344.522 116.08L341.443 116.171L338.9 116.668L337.893 117.899L335.442 118.916L334.602 120.514L333.837 121.217L329.501 123.526L328.109 124.634L327.534 124.711L327.087 124.214L326.497 124.183L323.561 125.773L323.069 125.445L322.933 124.252L321.843 125.514L320.981 125.751L319.021 128.258L316.637 128.625L315.04 129.535L315.661 128.044L315.426 127.761L312.952 128.052L312.225 129.863L310.667 130.49L308.616 132.134L307.882 131.568L305.982 132.073L304.537 132.952L301.026 133.097L299.724 132.318L297.742 132.103L296.856 132.432L296.417 132.157L296.705 131.469L296.047 131.53L295.971 130.811L295.214 130.72L293.126 131.683L292.036 132.983L292.74 133.571L293.406 134.871L293.443 135.559L293.148 135.59L291.158 133.915L290.454 133.762L290.613 132.99L290.197 131.951L288.593 131.071L285.846 130.307L285.611 131.576L286.073 132.792L285.036 132.417L284.726 133.342L283.916 134.061L283.515 133.594L282.418 133.35L283.107 131.958L282.229 132.119L281.964 131.752L282.887 131.385L282.781 131.102L281.555 131.301L280.647 132.585L279.936 132.448L279.028 132.799L278.952 133.464L281.835 133.892L282.675 134.328L282.463 135.536L283.599 138.655L283.213 138.9L281.465 136.232H280.382L279.603 138.571L278.218 139.718L278.975 137.042L278.279 135.567L277.832 135.383L276.296 137.753L276.879 134.58L275.29 133.281L274.631 131.637L274.813 131.087L273.579 130.85L272.762 129.81L272.755 129.168L272.331 128.946L270.265 130.781L271.196 129.015L271.287 127.287L270.674 126.217L269.342 126.286L269.107 126.01L270.265 124.78L270.727 123.151L269.531 121.599L268.108 122.173L267.238 121.829L268.865 120.781L268.873 120.04L268.161 119.604L268.812 118.625L268.714 118.159L267.412 118.549L266.988 119.031L265.725 118.411L265.49 119.443L265.112 119.619L264.537 118.411L263.008 119.237L261.888 118.939L261.956 118.35L263.772 117.555L264.143 115.193L264.484 114.856L265.271 114.749L265.899 115.468L267.238 115.996L267.677 115.789L266.988 114.658L267.087 114.023L265.596 112.639L265.24 112.662L264.93 113.304L264.196 112.976L264.726 112.043L264.196 111.668L264.242 109.987L263.916 109.857L263.727 110.698L262.736 110.912L263.28 112.257L260.201 112.387L259.951 111.89L261.525 109.941L258.763 110.193L259.731 108.779L260.935 108.098L260.443 107.67L258.657 107.831L258.861 106.164L257.37 107.731L256.765 106.523L256.303 106.508L254.888 105.361L254.291 105.293L253.148 106.279L251.725 105.767L251.332 106.753L252.429 107.991L251.983 108.572L250.878 107.991L250.159 107.135L249.122 106.898L248.343 105.774L247.124 105.063L247.162 103.695L244.945 101.631L244.37 100.4L243.666 100.323L242.561 101.141L242.054 102.013L241.381 102.258L241.668 100.874L240.503 101.401L239.943 102.923L238.324 103.572L236.992 106.042L235.441 106.095L233.988 106.608L233.662 105.682L231.914 104.077L232.3 102.624L231.982 101.371L230.908 100.461L230.295 100.43L228.184 101.554L226.481 103.404L224.203 104.299L223.356 104.429L221.033 102.808L216.749 102.082L215.66 102.548L215.213 103.901L212.716 104.566L211.634 104.169L210.537 105.53L209.833 104.994L209.129 103.045L208.161 102.54L207.533 102.663L206.738 103.511L205.807 103.358L204.339 104.024L203.454 103.962L203.083 103.442L202.553 99.6659L201.66 98.9855L200.722 99.0237L198.172 99.4212L195.259 102.28L192.761 103.412L191.422 103.42L190.014 102.67L189.121 102.877L188.44 103.809L188.191 105.736L187.003 106.974L186.753 108.702L186.367 108.878L184.831 108.007L182.962 108.748L180.192 108.068L176.946 108.626L174.872 107.204L172.708 107.036L172.11 106.263L172.496 103.42L171.853 101.233L172.678 100.163L172.133 97.7929L172.375 96.3862L173.329 95.6446L173.843 94.4673L175.281 93.4505L175.198 92.1203L177.347 91.4017L178.126 90.2855L177.945 87.8468L177.4 86.2719L176.469 85.5762L176.636 85.0028L177.642 84.0472L178.323 82.4188L181.312 81.8913L185.671 77.9618L185.777 76.8533L186.851 76.4328L186.904 74.5139L187.767 73.0843L191.392 72.6256L192.64 72.8168L194.002 72.488L194.804 71.6929L197.287 71.7923L199.368 70.2786L200.011 66.1351L199.08 63.1765L200.177 60.0802L199.935 59.2087L198.921 57.9473L198.883 56.8617L198.263 55.7685L198.369 54.4306L199.549 53.6738L201.259 53.926L202.992 52.6264L203.931 52.8634L204.665 52.55L206.352 53.3297L210.068 51.0439L211.657 48.8269L211.505 47.8942L211.937 47.382L211.566 46.4646L211.702 44.0411L212.958 42.6727L213.942 40.6544L214.04 38.8884L214.6 37.6346L214.275 35.7004L215.365 34.4084L215.841 33.0935L215.561 32.2602L214.328 31.0829L204.619 23.996L201.517 19.0497L191.377 8.07918L190.574 7.69693L190.809 7.35291L195.402 11.4888L203.484 15.6095L213.147 18.1476L221.714 18.7057L225.936 20.7469L233.458 27.5203L238.853 29.1028L242.281 29.1716Z" stroke="#FFFFFA" stroke-opacity="0.25" stroke-width="0.75"/>
<path d="M242.054 102.013L242.561 101.141L243.666 100.323L244.37 100.4L244.945 101.631L247.162 103.695L247.124 105.063L248.343 105.774L249.122 106.898L250.159 107.135L250.878 107.991L251.982 108.572L252.429 107.991L251.332 106.753L251.725 105.767L253.148 106.279L254.29 105.293L254.888 105.361L256.303 106.508L256.765 106.523L257.37 107.731L258.861 106.164L258.657 107.831L260.443 107.67L260.934 108.098L259.731 108.779L258.763 110.193L261.525 109.941L259.951 111.89L260.2 112.387L263.28 112.257L262.736 110.912L263.727 110.698L263.916 109.857L264.241 109.987L264.196 111.668L264.726 112.043L264.196 112.976L264.93 113.305L265.24 112.662L265.596 112.639L267.087 114.023L266.988 114.658L267.677 115.789L267.238 115.996L265.899 115.468L265.271 114.749L264.484 114.856L264.143 115.193L263.772 117.555L261.956 118.35L261.888 118.939L263.008 119.237L264.537 118.411L265.112 119.619L265.49 119.443L265.725 118.411L266.988 119.031L267.412 118.549L268.714 118.159L268.812 118.625L268.161 119.604L268.873 120.04L268.865 120.781L267.238 121.829L268.108 122.173L269.531 121.599L270.727 123.151L270.265 124.78L269.107 126.01L269.342 126.286L270.674 126.217L271.286 127.287L271.196 129.015L270.265 130.781L272.331 128.946L272.755 129.168L272.762 129.81L273.579 130.85L274.813 131.087L274.631 131.637L275.29 133.281L276.879 134.58L276.296 137.753L277.832 135.383L278.279 135.567L278.975 137.042L278.218 139.718L279.603 138.571L280.382 136.232H281.464L283.212 138.9L283.598 138.655L282.463 135.536L282.675 134.328L281.835 133.892L278.952 133.464L279.028 132.799L279.936 132.448L280.647 132.585L281.555 131.301L282.781 131.102L282.887 131.385L281.964 131.752L282.229 132.119L283.107 131.958L282.418 133.35L283.515 133.594L283.916 134.061L284.726 133.342L285.036 132.417L286.073 132.792L285.611 131.576L285.846 130.307L288.593 131.071L284.998 137.868L280.36 142.401L279.769 145.146L279.747 148.731L280.117 148.724L281.911 150.941L285.876 154.045L287.889 155.191L289.44 154.794L290.084 154.985L291.529 156.59L293.996 158.479L294.821 161.529L294.684 162.989L295.199 163.738L296.463 164.335L297.499 165.39L298.09 168.7L299.013 168.899L300.897 168.547L302.88 169.266L307.761 173.371L308.82 175.252L309.69 175.802H310.364L310.682 176.253L311.438 181.459L310.038 182.644L310.008 184.693L308.464 185.656L308.222 186.513L309.055 188.592L308.926 191.092L310.265 193.064L310.159 194.318L305.49 196.994L303.243 199.769L298.521 200.449L296.168 201.589L294.268 202.032L293.542 203.186L293.141 205.564L290.326 207.857L288.971 206.879L285.755 205.403L281.434 202.093L275.766 200.664L274.783 198.477L274.911 198.087L279.747 195.809L278.831 190.251L276.977 191.314L275.789 192.545L275.047 192.438L274.525 191.704L272.929 190.97L270.999 191.78L271.234 190.603L266.141 180.106L264.264 174.992L260.995 170.084L260.647 167.117L253.753 165.726L251.937 162.508L250.454 160.803L249.099 156.934L248.297 155.627L247.208 154.649L246.307 154.335L244.014 154.878L242.546 154.74L241.956 153.999L241.434 151.04L239.686 150.23V149.511L240.261 148.662L243.454 147.432L247.783 143.548L247.707 143.051L245.906 141.362L243.431 140.574L241.411 138.479L240.473 135.452L239.519 134.152L237.907 130.399L235.562 126.232L236.008 124.68L238.202 123.167L240.14 117.677L240.541 113.32L240.094 110.812L239.171 109.734L239.224 107.51L241.04 105.285L242.054 102.013Z" stroke="#FFFFFA" stroke-opacity="0.25" stroke-width="0.75"/>
<path d="M182.962 108.748L184.831 108.007L186.367 108.878L186.753 108.702L187.003 106.974L188.191 105.736L188.44 103.809L189.122 102.877L190.014 102.67L191.422 103.42L192.761 103.412L195.259 102.28L198.172 99.4212L200.722 99.0237L201.66 98.9855L202.553 99.6659L203.083 103.442L203.454 103.962L204.339 104.024L205.807 103.358L206.738 103.511L207.533 102.663L208.161 102.54L209.129 103.045L209.833 104.994L210.537 105.53L210.628 106.371L209.614 107.227L209.364 108.228L208.032 108.878L208.055 110.766L207.26 113.564L207.071 113.824L206.466 113.633L205.966 114.222L206.193 115.751L205.792 116.921L207.926 120.552L208.41 120.72L209.371 120.254L210.862 121.767L211.271 121.966L211.959 121.553L212.815 123.824L214.101 124.696L214.29 125.277L213.98 125.59L212.618 125.942L212.134 126.484L212.633 127.983L217.272 130.024L222.826 130.941L223.242 131.935L223.394 134.672L223.061 136.408L220.775 137.99L220.616 140.559L219.201 141.698L218.656 148.02L217.574 152.607L216.227 156.537L215.274 160.933L213.306 164.916L213.866 168.57L210.998 178.394L209.591 181.704L208.668 182.736L209.008 183.34L209.682 183.623L212.913 182.239L213.829 182.438L213.496 184.235L211.021 186.872L210.998 187.858L211.445 188.592L210.544 189.334L210.65 189.968L213.276 190.695L218.308 192.927L218.853 193.745L219.784 197.781L220.495 199.417L220.949 200.167L223.31 201.703L223.779 202.384L223.325 203.217L221.419 203.653L220.904 204.066L220.162 205.786L219.754 208.362L219.86 208.989L220.412 209.295L222.803 209.318L224.627 210.143L224.551 210.64L222.803 212.36L222.031 214.394L222.319 216.496L221.502 218.117L221.691 220.12L223.204 222.352L223.946 224.134L223.484 227.918L222.039 230.204L221.524 231.802L221.487 233.269L223.704 238.078L224.801 239.676L225.444 242.344L227.321 244.148L227.518 245.7L226.996 247.038L227.064 247.749L228.153 248.445L230.628 248.697L233.201 249.561L234.018 248.865L233.912 246.885L234.381 246.044L233.995 245.578L234.177 245.15L238.316 245.088L238.49 246.625L238.036 249.201L239.565 249.622L243.674 248.942L244.173 249.24L244.226 249.912L243.038 254.262L242.425 255.279L240.927 256.9L238.884 257.771L238.937 258.276L239.625 258.658L239.936 259.469L238.604 262.504L235.425 260.386L233.382 259.897L228.812 257.573L228.471 256.732L226.905 256.586L223.832 254.476L216.265 251.166L215.516 250.608L215.448 250.111H214.154L205.694 246.518L204.945 245.884L202.213 245.325L200.033 245.608L199.557 245.18H197.71L196.825 246.595L196.008 247.015L195.19 246.312L191.165 245.257L189.598 245.96L187.691 244.477L186.049 243.919L183.053 243.988L181.554 243.353L180.525 243.842L179.572 243.07L178.823 243.567L177.869 243.636L176.711 243.353H175.342L174.388 243.07L172.685 243.919L169.621 243.001L168.455 243.422L166.548 243.07L165.391 242.856L161.705 241.878L160.343 242.367L159.117 242.581L153.389 241.946L152.572 242.229L152.36 242.65L149.908 243.215L147.313 243.353L145.474 242.581L143.226 241.312H142.137L139.95 241.243L137.975 240.326L136.272 240.112L134.97 239.836L133.404 239.477L130.127 239.339L129.923 238.85L129.242 238.636L128.901 238.919L127.607 238.774L126.858 237.933L124.399 237L129.219 233.216L133.177 228.055L138.239 223.209L138.966 221.832L139.776 216.58L140.502 214.386L142.644 211.886L143.93 209.784L146.48 208.186L148.289 205.977L148.531 204.066L147.418 192.575L147.812 190.289L149.03 189.341L150.317 188.883L157.279 187.904L158.088 185.152L159.693 184.479L160.457 182.751L161.879 181.475L163.423 181.092L163.877 181.735L164.891 181.926L165.497 181.284L165.89 179.831L167.729 179.456L168.993 176.643L168.819 174.35L168.289 173.73L167.108 173.593L164.99 172.599L164.838 169.686L163.643 168.616L162.674 166.07L164.187 164.51L165.459 164.136L166.48 163.341L166.912 161.842L166.624 160.81L167.116 160.505L166.836 159.725L167.714 156.758L166.586 153.265L167.184 152.531L166.745 148.762L164.906 143.051L165.898 141.377L165.345 139.94L166.412 138.495L166.7 137.073L167.54 136.178L168.281 136.576L168.607 136.377L169.424 134.481L170.468 134.336L170.968 133.373L173.238 133.12L177.967 128.923L180.26 128.396L181.191 127.532L181.168 126.125L180.283 124.497L180.518 122.425L179.905 120.537L181.108 117.708L182.273 117.639L182.636 116.561L183.537 115.911L183.416 113.908L182.137 113.022L181.978 112.54L183.219 110.132L183.28 109.146L182.962 108.748Z" stroke="#FFFFFA" stroke-opacity="0.25" stroke-width="0.75"/>
<path d="M497.04 118.304L499.386 119.902L505.584 120.323L505.667 125.238L507.317 127.708L508.497 128.77L510.275 132.004L518.403 143.67L519.583 148.265L532.41 140.849L533.711 142.134L531.789 147.026L531.426 149.893L531.464 151.82L532.576 158.188L532.879 165.183L530.873 174.204L531.411 174.999L534.884 174.548L535.527 175.068L536.004 178.707L537.124 181.207L536.655 186.467L535.346 189.318L533.34 196.13L526.326 211.481L526.674 214.233L524.32 220.701L522.118 223.835L516.844 226.152L515.974 226.978L514.097 226.664L512.107 226.863L502.754 230.311L497.631 231.618L496.442 230.968L493.93 225.441L488.497 223.369L487.861 222.689L488.224 220.907L489.496 219.386L489.064 217.651L489.556 216.871L488.444 216.19L488.429 215.449L487.642 214.707L487.876 213.278L482.995 213.385L478.213 214.379L475.549 214.57L474.074 215.059L470.926 217.238L469.458 217.521L470.729 214.906L472.333 213.469L472.099 212.643L467.263 209.104L467.066 208.255L467.551 206.137L467.089 204.876L463.911 202.942L462.39 200.35L456.601 195.236L455.927 193.393L455.791 189.464L456.465 186.627L457.335 185.182L460.453 182.79L467.021 178.631L467.392 177.79L467.119 174.502L457.63 167.209L456.101 163.31L455.542 158.708L458.962 153.249L459.091 148.953L460.226 148.097L461.89 148.441L462.375 148.211L461.504 145.444L458.712 144.129L458.833 142.531L458.281 141.499L459.635 140.888L469.352 132.44L468.996 127.119L469.934 123.595L470.214 119.535L471.652 119.512L472.174 118.771L474.679 118.786L474.815 119.657L475.625 120.269L477.032 120.621L478.955 120.43L479.885 120.384L480.627 121.844L481.421 121.928L482.345 121.477L483.018 121.66L483.525 122.134L484.6 121.913L485.962 121.806L486.824 120.475L488.013 120.766L488.497 120.277L489.988 120.911L492.742 120.047L495.239 118.495L497.04 118.304Z" stroke="#FFFFFA" stroke-opacity="0.25" stroke-width="0.75"/>
<path d="M302.259 289.521L303.826 290.224L304.439 291.562L300.345 290.576L299.459 289.942L299.596 289.521H302.259V289.521ZM294.147 285.301L294.624 285.584L294.828 286.425L294.147 286.142V285.301ZM293.126 285.087L293.807 286.142L291.9 285.722L291.968 285.232L293.126 285.087V285.087ZM303.243 199.769L302.744 206.329L304.408 210.235L302.744 216.817L304.454 217.735L307.776 218.484L313.519 218.125L316.985 217.139L317.666 217.49L317.205 220.044L318.052 221.718L318.113 223.14L322.63 233.369L323.069 235.127L322.895 238.116L321.586 242.29L321.253 245.119L320.284 246.679L320.353 247.94L321.124 250.18L320.981 252.902L321.881 254.813L321.73 256.701L322.494 257.756L324.953 258.834L325.862 261.495L328.117 263.681L330.334 264.698L331.628 266.854L331.416 267.893L329.781 270.011L329.675 272.236L329.32 273.138L328.571 273.895L326.535 274.246L325.483 275.286L325.408 276.051L326.512 277.564L325.604 280.026L325.869 282.044L325.521 283.375L326.217 284.942L327.821 286.945L327.98 288.458L325.582 290.905L323.554 291.065L322.487 291.547L321.465 293.068L320.436 293.84L320.126 294.467L320.436 295.377L320.216 295.889L319.081 296.944L318.211 298.802L318.4 299.781L318.014 300.874L318.029 302.762L310.795 298.687L307.45 297.701L306.293 296.432L306.429 294.957L306.853 295.24L307.042 296.226L308.131 297.067H308.676L311.06 295.171L311.423 295.24L312.218 295.805L312.422 296.723L312.967 296.868L312.354 295.599L311.332 294.895L311.605 293.42L314.465 292.931L314.738 291.945L314.397 291.172L314.95 290.461L314.405 290.675L314.064 291.31L314.533 291.914L314.427 292.449L311.204 293.214L310.931 294.689L310.25 295.53L309.819 295.889L308.82 295.951L308.343 294.681L309.024 293.764L307.935 294.261L306.505 292.571L306.096 292.434L305.619 292.365L304.802 291.172L305.415 290.89L305.483 290.469L305.211 290.538L304.802 289.766L303.44 288.642L300.572 288.573L299.823 287.939L299.891 288.504H299.142L298.801 289.208L298.256 289.139L297.999 288.711L297.575 289.062L296.962 288.994L295.873 287.801L294.783 285.408L293.148 284.491L292.399 284.842L290.924 284.667L290.212 282.939L290.008 283.29L290.507 284.223L290.485 284.697L291.574 285.118L291.642 285.538L289.395 286.104L287.95 284.682L284.582 284.131L283.803 282.732L283.122 282.946L282.168 282.457L280.534 282.243L279.648 281.54L279.308 280.768L278.763 280.836L279.648 281.754L279.512 282.105L279.921 282.595L282.721 283.16L285.104 284.781H287.079L289.667 286.54L292.195 286.257L294.306 287.098L296.902 289.842L301.472 291.952L303.515 292.166L304.878 293.573L305.286 294.628L304.197 294.98L302.085 294.345L291.582 288.65L277.946 282.388L276.72 282.174L268.676 278.94L268.335 277.954L267.791 277.817L267.654 278.237L266.497 278.023L263.152 276.616L257.628 273.237L238.642 262.542L239.973 259.515L239.656 258.704L238.967 258.322L238.914 257.817L240.957 256.954L242.455 255.333L243.068 254.324L244.256 249.974L244.203 249.301L243.696 249.003L239.595 249.683L238.059 249.263L238.52 246.686L238.339 245.157L239.709 241.197L241.54 240.012L241.895 238.43L242.826 237.107L242.682 234.279L244.483 232.375L244.93 230.984L244.294 228.812L244.317 226.137L243.976 224.814L241.131 221.175L240.473 218.339L239.474 216.726L239.761 215.892L241.903 215.051L251.317 214.325L252.49 213.354L255.244 208.576L257.151 206.588L260.927 207.865L262.092 207.437L262.251 206.374L262.978 206.336L264.537 206.848L266.837 208.637L268.403 208.859L269.206 208.385L270.757 206.481L271.695 206.397L272.414 205.488L274.17 204.616L276.425 204.601L277.484 202.216L276.886 202.147L275.812 200.732L281.472 202.17L285.793 205.48L289.017 206.955L290.371 207.934L293.186 205.64L293.587 203.263L294.321 202.109L296.221 201.665L298.574 200.526L303.243 199.769V199.769Z" stroke="#FFFFFA" stroke-opacity="0.25" stroke-width="0.75"/>
<path d="M182.666 5.84682L183.87 5.18935L184.596 5.3346L188.092 8.10973L189.258 8.40024L190.574 7.6969L191.376 8.07915L201.516 19.0497L204.619 23.996L214.328 31.0829L215.561 32.2602L215.841 33.0935L215.365 34.4084L214.275 35.7004L214.6 37.6346L214.04 38.8884L213.942 40.6544L212.958 42.6726L211.702 44.0411L211.566 46.4645L211.937 47.3819L211.505 47.8941L211.657 48.8268L210.067 51.0439L206.352 53.3297L204.664 52.5499L203.93 52.8634L202.992 52.6264L201.259 53.926L199.549 53.6737L198.368 54.4306L198.263 55.7685L198.883 56.8617L198.921 57.9473L199.935 59.2087L200.177 60.0802L199.08 63.1764L200.011 66.135L199.367 70.2786L197.286 71.7923L194.804 71.6929L194.002 72.488L192.64 72.8167L191.392 72.6256L187.767 73.0843L186.904 74.5139L186.851 76.4328L185.777 76.8533L185.671 77.9618L181.312 81.8913L178.323 82.4188L177.642 84.0472L176.635 85.0028L176.469 85.5762L177.4 86.2719L177.945 87.8467L178.126 90.2855L177.347 91.4016L175.198 92.1203L175.281 93.4505L173.843 94.4673L173.328 95.6446L172.375 96.3862L172.133 97.7928L172.678 100.163L171.853 101.233L172.496 103.42L172.11 106.263L172.708 107.036L174.872 107.204L176.946 108.626L180.192 108.068L182.962 108.748L183.279 109.146L183.219 110.132L181.978 112.54L182.137 113.022L183.416 113.908L183.537 115.911L182.636 116.561L182.273 117.639L181.108 117.708L179.904 120.537L180.517 122.425L180.283 124.497L181.168 126.125L181.191 127.532L180.26 128.396L177.967 128.923L173.238 133.12L170.968 133.373L170.468 134.336L169.424 134.481L168.607 136.377L168.281 136.576L167.54 136.178L166.7 137.073L166.412 138.495L165.345 139.94L165.897 141.377L164.906 143.051L166.745 148.762L167.184 152.531L166.586 153.265L167.714 156.758L166.836 159.725L167.116 160.505L166.624 160.81L166.911 161.842L166.48 163.341L165.459 164.136L164.187 164.51L162.674 166.07L163.642 168.616L164.838 169.686L164.989 172.599L161.584 171.261L159.685 171.337L158.398 172.018L156.847 171.704L154.925 172.087L153.048 171.597L150.892 169.885L149.393 169.296L146.079 167.125L146.427 164.87L146.192 163.563L144.187 161.659L142.651 160.742L141.607 160.719L141.077 160.046L141.349 159.35L142.348 159.021L142.409 158.54L141.175 158.479L138.837 157.485H137.218L134.94 158.815L131.156 159.824L130.611 164.144L129.877 164.862L127.97 165.787L127.516 167.079L126.707 167.607L125.072 165.504L125.731 163.647L125.042 162.209L123.952 161.544L121.062 160.772L118.912 161.72L118.042 160.994L118.375 159.893L123.241 155.551L123.468 154.901L123.082 153.884L123.4 152.477L123.233 151.866L121.811 151.147L116.657 150.941L116.839 150.107L115.893 147.692L116.612 146.797L116.408 145.604L116.824 144.427L115.999 143.747L117.164 142.791L117.255 142.134L116.362 142.447L115.5 142.279L114.781 143.043L114.062 142.753L112.48 143.303L110.74 141.82L108.553 141.147H107.615L106.873 141.874L106.094 141.698L104.164 142.287L100.645 140.918L99.1846 141.117L98.1782 142.095L96.4983 141.216L97.8679 140.88L100.668 136.66L100.963 135.483L100.812 133.487L102.333 130.834L102.953 126.645L106.752 121.362L107.153 116.401L106.737 115.254L105.995 114.482L101.114 111.89L100.638 111.248L99.7824 107.074L98.4657 107.181L97.6636 106.317L95.6053 106.233L95.4313 105.354L96.8691 105.667L97.1642 104.138L95.5978 103.244L95.0605 101.18L95.7264 99.5741L94.6292 98.1063L97.2399 92.5637L97.815 89.8574L100.441 82.9998L102.544 79.1009L114.334 68.4897L114.289 67.9392L121.447 63.9791L123.143 63.5587L125.193 63.444L130.808 64.2467L137.293 63.4975L142.515 60.73L146.253 59.6215L148.296 58.5283L149.197 57.7485L149.787 55.2486L150.74 54.4765L150.793 53.6202L149.87 53.1845L149.878 53.819L149.507 54.1707L146.82 47.2367L143.672 42.9096L142.817 40.2186L143.937 41.029L144.361 40.7079L144.845 39.4847L144.361 37.841L142.999 36.5108L141.781 36.1897L141.834 35.3793L141.334 35.1806L140.714 33.965L139.934 33.621L136.658 33.5598L135.477 33.1317L133.903 34.5231L133.139 34.6072L132.995 34.1867L133.199 30.2648L134.206 27.2527L135.364 26.7329L137.18 26.8705L137.831 26.2818L137.929 24.5388L139.783 24.1489L139.405 22.6657L136.673 20.2499L137.013 19.1185L135.931 14.1493L136.226 10.2121L137.339 7.99505L145.368 7.72748L144.997 8.78249L147.501 12.9643L146.45 15.9764L148.394 16.6033L148.841 16.0452L150.233 16.0987L151.762 13.9352L157.838 8.42317L158.989 8.40024L160.426 7.56694L162.068 5.82388L163.794 6.7107L165.421 6.94005L167.305 8.0027L169.295 8.5302L169.499 9.73046L170.733 10.4032L172.269 10.1892L175.606 7.55165L177.339 5.29638L178.277 4.7383L178.769 2.7659L179.647 1.40509L181.289 1.05342L181.978 0.265991L182.909 1.05342L182.666 5.84682Z" stroke="#FFFFFA" stroke-opacity="0.25" stroke-width="0.75"/>
<path d="M458.281 141.499L458.833 142.531L458.712 144.129L461.504 145.444L462.374 148.211L461.89 148.441L460.225 148.097L459.09 148.953L458.962 153.249L455.541 158.708L456.101 163.31L457.63 167.209L467.119 174.502L467.391 177.79L467.021 178.631L460.452 182.79L457.335 185.182L456.464 186.627L455.791 189.464L455.927 193.393L456.601 195.236L462.39 200.35L463.911 202.942L467.089 204.876L467.55 206.137L467.066 208.255L467.263 209.104L472.098 212.643L472.333 213.469L470.729 214.906L469.457 217.521L470.925 217.238L474.073 215.059L475.549 214.57L478.213 214.379L482.995 213.385L487.876 213.278L487.641 214.707L488.428 215.449L488.444 216.19L489.556 216.871L489.064 217.651L489.495 219.386L488.224 220.907L487.861 222.689L488.497 223.369L493.93 225.441L496.442 230.968L497.63 231.618L502.753 230.311L512.106 226.863L514.096 226.664L515.973 226.978L514.997 228.598L515.194 230.548L514.482 233.162L515.678 235.739L517.6 244.752L517.214 245.585L513.756 246.327L512.538 247.084L511.009 253.506L510.759 257.55L511.508 261.655L512.992 264.4L515.338 265.447L516.117 266.196L517.396 266.471L517.033 267.809L515.686 270.149L514.286 275.179L513.491 275.752L512.167 275.959L511.804 276.578L512.432 277.526L513.9 278.52L515.201 281.425L513.991 286.18L512.454 289.941L514.127 294.88L514.634 305.912L513.854 306.531L506.113 305.713L504.706 306.019L502.382 310.98L500.354 317.119L499.469 324.688L499.371 324.971L494.376 324.619L493.15 324.825L493.218 325.605L492.598 325.98L489.859 321.699L483.767 313.748L482.148 310.017L472.9 308.886L469.851 310.721L468.693 310.438L467.581 309.429L467.066 308.366L467.187 307.112L467.732 306.111L471.576 302.77L471.72 302.219L470.32 299.865L468.64 298.718L467.656 297.571L466.62 297.357L465.28 297.976L464.872 297.686L466.393 292.885L465.553 291.654L465.076 291.738L464.72 292.617L463.903 292.441L463.494 293.343L462.707 292.518L459.726 293.305L459.09 292.266L458.25 291.998L459.09 291.547L458.712 291.211L457.002 291.05L455.98 290.393L455.693 291.448L454.943 290.966L454.399 292.946L454.028 292.977L453.369 292.296L452.643 292.602L451.22 297.999L451.288 299.888L453.892 303.565L453.755 304.261L451.455 305.071L448.663 305.354L447.21 306.065L445.991 305.805L445.409 305.163L445.106 304.253L445.409 300.407L444.387 298.871L444.357 298.167L446.574 295.553L450.857 293.565L451.531 292.449L450.925 289.498L449.434 286.448L449.73 283.94L449.132 283.711L444.765 284.246L442.503 283.711L437.425 283.848L436.404 283.451L436.366 280.668L435.859 279.46L434.996 279.277L434.444 278.13L433.725 277.885L432.862 276.7L430.244 275.523L429.313 274.109L429.343 272.985L430.32 270.776L429.752 265.875L430.895 263.131L430.819 260.982L429.419 259.782L428.995 256.816L428.556 256.059L427.141 255.99L425.719 256.671L425.015 256.181L425.545 250.539L426.173 250.157L428.466 250.753L429.805 250.165L430.017 248.559L429.457 245.715L430.146 244.714L431.833 243.407L432.378 241.549L431.553 229.279L428.738 227.78L427.626 226.832L428.92 223.155L428.178 220.174L428.382 218.568L429.275 218.178L430.267 218.476L431.848 220.281L432.287 220.242L432.582 219.715L431.984 217.146L432.09 216.382L432.794 215.464L432.817 214.692L432.522 214.088L430.637 213.048L430.093 211.848L430.13 209.853L431.016 207.513L429.934 201.696L429.147 201.015L427.966 201.031L427.035 201.436L425.878 202.651L424.046 202.911L421.428 201.459L420.043 201.512L419.43 200.335L418.091 199.31L417.637 198.531L416.123 198.125L413.028 194.005L411.235 193.034L410.683 193.011L409.85 194.142L408.579 193.928L407.951 194.188L407.482 193.913L407.035 194.341L405.65 193.21L404.213 193.416L402.48 193.072L401.496 192.239L399.059 191.321L398.832 190.35L399.12 187.858L398.303 186.253L397.115 186.13L395.329 187.071L394.58 186.979L393.361 181.261L393.959 180.978L394.133 179.907L392.786 177.362L392.862 175.764L393.702 173.921L395.193 173.203L395.594 171.98L396.782 170.382L397.077 168.677L396.259 166.643L396.275 165.749L396.963 164.595L400.02 161.307L399.771 158.219L400.883 156.032L400.648 153.532L401.814 150.948L403.766 151.063L407.709 152.837L408.443 151.392V149.809L412.953 150.184L414.428 149.947L417.092 146.323L419.355 145.536L429.707 144.695L435.503 149.022L444.38 145.757L458.281 141.499Z" stroke="#FFFFFA" stroke-opacity="0.25" stroke-width="0.75"/>
<path d="M43.1794 200.029L45.3134 199.012L46.3047 197.139L47.9998 196.176L50.9207 191L52.3812 190.748L53.8114 189.387L54.7044 189.311L60.1225 194.066L61.3862 195.771L64.7688 197.032L66.759 198.202L69.4832 200.786L70.921 200.954L74.4322 200.45L75.6051 198.217L77.3001 191.26L78.6698 188.684L78.6168 186.192L80.5238 181.773L80.8113 177.966L81.5454 177.27L84.7312 176.949L83.2783 172.737L82.234 167.997L82.2643 166.491L83.1269 162.997L84.1258 161.674L86.6154 159.549L89.0899 155.23L88.8553 154.182L86.9938 150.811L85.3214 143.884L86.2068 142.921L88.757 142.661L91.0725 141.492L92.9719 138.693L93.5243 139.542L95.7339 140.161L96.4982 141.216L98.1782 142.095L99.1846 141.117L100.645 140.918L104.164 142.287L106.094 141.698L106.873 141.874L107.615 141.148H108.553L110.74 141.82L112.48 143.303L114.062 142.753L114.781 143.043L115.5 142.279L116.362 142.447L117.255 142.134L117.164 142.791L115.999 143.747L116.824 144.427L116.408 145.605L116.612 146.797L115.893 147.692L116.839 150.107L116.657 150.941L121.811 151.147L123.233 151.866L123.4 152.477L123.082 153.884L123.468 154.901L123.241 155.551L118.375 159.893L118.042 160.994L118.912 161.72L121.062 160.772L123.952 161.544L125.042 162.209L125.731 163.647L125.072 165.504L126.707 167.607L127.516 167.079L127.97 165.787L129.877 164.862L130.611 164.144L131.156 159.824L134.94 158.815L137.218 157.485H138.837L141.175 158.479L142.409 158.54L142.348 159.021L141.349 159.35L141.077 160.046L141.607 160.719L142.651 160.742L144.187 161.659L146.192 163.563L146.427 164.87L146.079 167.125L149.393 169.296L150.892 169.885L153.048 171.597L154.925 172.087L156.847 171.704L158.398 172.018L159.685 171.338L161.584 171.261L164.989 172.599L167.108 173.593L168.289 173.73L168.818 174.35L168.992 176.643L167.729 179.456L165.89 179.831L165.496 181.284L164.891 181.926L163.877 181.735L163.423 181.092L161.879 181.475L160.457 182.751L159.692 184.479L158.088 185.152L157.278 187.904L150.316 188.883L149.03 189.341L147.812 190.289L147.418 192.575L148.531 204.066L148.288 205.977L146.48 208.186L143.93 209.784L142.643 211.886L140.502 214.386L139.775 216.58L138.966 221.833L138.239 223.209L133.177 228.056L129.219 233.216L124.399 237L122.287 236.098L117.921 235.112L116.9 234.409L113.623 233.988L109.605 233.285L105.375 233.636L105.17 233.216L104.625 233.147L102.166 234.485H101.621L101.349 234.057L98.4884 234.485L92.6919 234.271L88.5299 233.568L86.8197 234.126L84.5723 234.34L83.8912 235.609L83.1421 234.837L82.0524 235.823L82.3248 236.45L82.1205 236.947H81.3032L81.4394 235.892L81.167 235.54L79.6611 235.326L78.6396 236.175L78.4352 237.084H78.0266L77.8223 236.175L77.9585 235.257L77.2774 234.691L76.5283 234.974L76.4602 234.202L75.0829 233.499L74.4095 233.636L74.3414 233.002L75.0905 232.719V232.084L73.9327 231.802L73.5922 231.029L73.8646 230.471L73.1155 228.423L73.2517 226.878L72.7749 225.464L72.2301 225.235L72.0258 223.216L70.7318 223.285L69.8464 222.368L70.1869 221.947L70.3912 222.436L71.2766 222.154L71.549 222.582L71.8896 222.436L71.6171 220.464L71.2085 220.326L71.8215 218.568L70.5275 216.382L69.0216 215.25L67.9319 214.623L63.9742 212.154L59.3431 209.127L47.3414 202.292L46.3123 201.589L46.5166 201.023L45.9037 200.457L45.6312 201.023H45.2226L43.1794 200.029Z" stroke="#FFFFFA" stroke-opacity="0.25" stroke-width="0.75"/>
<path d="M210.537 105.53L211.634 104.169L212.716 104.566L215.213 103.901L215.66 102.548L216.749 102.082L221.032 102.808L223.356 104.429L224.203 104.299L226.481 103.404L228.183 101.554L230.295 100.43L230.908 100.461L231.982 101.371L232.3 102.625L231.914 104.077L233.662 105.683L233.988 106.608L235.44 106.095L236.992 106.042L238.324 103.573L239.943 102.923L240.503 101.401L241.668 100.874L241.381 102.258L242.054 102.013L241.04 105.285L239.224 107.51L239.171 109.734L240.094 110.812L240.541 113.32L240.14 117.677L238.202 123.167L236.008 124.68L235.562 126.232L237.907 130.399L239.519 134.152L240.473 135.452L241.411 138.479L243.431 140.574L245.906 141.362L247.707 143.051L247.783 143.548L243.454 147.432L240.261 148.663L239.686 149.511V150.23L241.434 151.04L241.956 153.999L242.546 154.74L244.014 154.878L246.307 154.335L247.208 154.649L248.297 155.627L249.099 156.934L250.454 160.803L251.937 162.508L253.753 165.726L260.647 167.117L260.995 170.084L264.264 174.992L266.141 180.106L271.234 190.603L270.999 191.78L272.929 190.97L274.525 191.704L275.047 192.438L275.789 192.545L276.977 191.314L278.831 190.251L279.747 195.809L274.911 198.087L274.783 198.477L275.766 200.664L276.841 202.07L277.439 202.139L276.387 204.524L274.132 204.54L272.376 205.411L271.657 206.321L270.719 206.397L269.168 208.309L268.366 208.775L266.799 208.561L264.491 206.764L262.932 206.252L262.206 206.29L262.047 207.361L260.882 207.789L257.105 206.52L255.199 208.507L252.444 213.285L251.279 214.256L241.865 214.983L239.731 215.824L239.436 216.657L240.442 218.27L241.101 221.106L243.946 224.745L244.287 226.068L244.271 228.744L244.899 230.915L244.461 232.306L242.652 234.21L242.796 237.038L241.865 238.369L241.509 239.943L239.678 241.136L238.316 245.088L234.177 245.15L233.995 245.578L234.381 246.044L233.912 246.885L234.018 248.865L233.201 249.561L230.628 248.697L228.153 248.445L227.063 247.749L226.995 247.038L227.518 245.7L227.321 244.148L225.444 242.344L224.801 239.676L223.704 238.078L221.486 233.269L221.524 231.802L222.039 230.204L223.484 227.918L223.946 224.134L223.204 222.352L221.691 220.12L221.502 218.117L222.319 216.496L222.031 214.394L222.803 212.36L224.551 210.64L224.627 210.143L222.803 209.318L220.412 209.295L219.859 208.989L219.754 208.362L220.162 205.786L220.904 204.066L221.418 203.653L223.325 203.217L223.779 202.384L223.31 201.703L220.949 200.167L220.495 199.417L219.784 197.781L218.853 193.745L218.308 192.927L213.276 190.695L210.65 189.968L210.544 189.334L211.445 188.592L210.998 187.858L211.021 186.872L213.495 184.235L213.828 182.438L212.913 182.239L209.682 183.623L209.008 183.34L208.668 182.736L209.591 181.704L210.998 178.394L213.866 168.57L213.306 164.916L215.274 160.933L216.227 156.537L217.574 152.607L218.656 148.02L219.201 141.698L220.616 140.559L220.775 137.99L223.06 136.408L223.393 134.672L223.242 131.935L222.826 130.941L217.271 130.024L212.633 127.983L212.133 126.484L212.618 125.942L213.98 125.59L214.29 125.277L214.101 124.696L212.814 123.824L211.959 121.553L211.271 121.966L210.862 121.768L209.371 120.254L208.41 120.72L207.926 120.552L205.792 116.921L206.193 115.751L205.966 114.222L206.465 113.633L207.071 113.824L207.26 113.564L208.055 110.766L208.032 108.878L209.364 108.228L209.613 107.227L210.627 106.371L210.537 105.53Z" stroke="#FFFFFA" stroke-opacity="0.25" stroke-width="0.75"/>
<path d="M310.364 175.802L310.954 175.68L313.33 172.698L314.405 171.949L318.718 171.506L320.459 172.14L321.859 171.995L324.893 172.584L327.443 172.446L333.33 168.99L335.192 168.486L336.879 168.945L337.629 167.691L338.688 167.263L340.444 167.882L341.511 167.767L343.327 168.516L343.796 168.379L344.258 167.568L345.438 169.946L346.127 170.367L347.398 169.724L349.055 170.26L352.945 169.044L354.443 170.13H358.174L359.914 168.539L360.527 168.387L362.691 169.189L362.964 170.558L364.916 171.827L368.397 172.102L370.826 173.876L372.884 174.678L375.964 174.655L375.556 177.576L376.638 178.684L377.455 179.013L378.181 181.245L382.631 181.199L383.615 180.626L384.984 181.192L387.179 181.077L388.98 180.397L390.085 180.473L391.553 179.808L392.272 179.907L393.361 181.261L394.58 186.979L395.329 187.071L397.115 186.13L398.303 186.253L399.12 187.858L398.833 190.351L399.06 191.321L401.496 192.239L402.48 193.072L403.199 194.838L401.05 198.607L399.778 199.547L396.184 200.618L394.444 201.581L392.968 203.706L391.069 204.601L389.487 205.839L387.065 208.844L386.172 212.177L383.834 213.92L382.351 217.834L381.753 218.323L379.052 219.195L373.702 219.501L368.942 220.93L367.83 222.123L367.043 224.134L365.998 225.158L363.607 230.051L362.881 230.479L360.815 230.288L359.468 231.373L358.938 233.078L359.468 236.304L358.567 238.2L358.068 243.17L356.993 246.503L356.812 252.122L355.707 253.957L353.966 255.463L351.265 262.695L347.458 268.467L343.645 276.318L343.788 279.338L344.522 280.836L346.119 281.861L346.308 283.191L346.013 284.024L342.774 285.316L341.102 287.358L339.543 290.568L338.143 291.486L334.261 295.438L331.522 296.707L329.562 298.443L327.844 298.695L326.422 299.375L325.37 300.576L325.044 302.173L326.611 303.794L328.518 304.903L332.99 306.401L333.769 307.418L333.906 308.656L324.696 305.767L319.649 302.961L318.968 303.313L318.022 302.739L318.007 300.859L318.393 299.765L318.204 298.787L319.074 296.937L320.209 295.882L320.421 295.369L320.11 294.452L320.421 293.825L321.45 293.053L322.471 291.524L323.538 291.05L325.566 290.89L327.965 288.443L327.814 286.929L326.21 284.926L325.506 283.352L325.862 282.021L325.597 280.003L326.505 277.534L325.4 276.02L325.476 275.256L326.527 274.216L328.571 273.864L329.32 273.115L329.675 272.213L329.781 269.988L331.416 267.87L331.628 266.831L330.334 264.675L328.109 263.666L325.862 261.472L324.954 258.811L322.494 257.733L321.73 256.678L321.881 254.79L320.981 252.879L321.124 250.157L320.353 247.917L320.292 246.663L321.253 245.104L321.594 242.275L322.903 238.101L323.077 235.112L322.63 233.353L318.12 223.124L318.052 221.703L317.205 220.028L317.666 217.475L316.985 217.123L313.519 218.109L307.776 218.476L304.454 217.727L302.744 216.81L304.408 210.235L302.744 206.321L303.243 199.769L305.491 196.994L310.16 194.318L310.265 193.064L308.926 191.092L309.055 188.592L308.222 186.513L308.464 185.656L310.008 184.693L310.038 182.644L311.438 181.459L310.682 176.253L310.364 175.802Z" stroke="#FFFFFA" stroke-opacity="0.25" stroke-width="0.75"/>
<path d="M599.402 323.786L599.811 324.688V326.377L599.13 325.743L598.789 324.619L599.402 323.786V323.786ZM591.214 313.152L591.419 313.71L592.985 313.572L594.907 314.115L595.24 315.896L596.398 317.792L596.67 319.061L596.807 319.902L597.064 321.362L596.602 322.295L597.412 323.128L597.351 324.267L598.237 324.757L597.949 325.812H597.283L596.466 326.653L595.172 326.232L594.287 327.501L593.81 327.012L594.287 325.957L593.144 325.169L592.38 325.322L592.107 325.957L591.358 326.309L590.004 326.377L589.996 325.399L590.412 324.757L590.344 323.014L589.868 322.448L589.05 322.31L589.323 321.676L588.71 320.904L589.05 320.131L588.642 318.794L589.459 317.578L588.914 315.353L590.276 313.457L591.214 313.152V313.152ZM579.069 305.216L581.248 305.851L582.278 306.89L582.482 308.58L583.299 308.511L583.64 308.863L583.367 309.497L583.572 310.759L583.231 311.393L582.497 310.889L582.141 311.042L581.665 311.959V313.297L580.643 314.138H579.894L577.374 312.731L576.897 311.324L577.041 310.201L576.557 309.849L576.549 309.077L576.004 308.236L576.072 307.8L576.685 307.533L576.209 306.829L576.481 306.057L577.366 305.354L579.069 305.216V305.216ZM585.698 294.926L586.992 295.431L587.605 296.975L587.196 297.395L586.508 297.25L586.038 297.816L585.357 297.678L584.881 298.099L584.139 296.967L585.698 294.926ZM585.282 291.983L585.486 292.403L584.525 293.099L584.464 292.548L585.282 291.983ZM585.282 287.48L585.554 288.604L584.396 289.804L583.027 290.224L583.239 290.981L582.489 291.562L583.239 292.48L582.898 293.321L583.375 293.886L581.877 294.727L580.181 294.368L578.804 294.567L579.417 293.321L579.077 291.983L579.145 290.156L578.736 289.452L578.94 288.328L579.69 288.405V287.908L580.371 287.556V288.191L580.794 288.611L581.877 287.984L583.102 288.688L583.852 287.916L585.282 287.48V287.48ZM559.508 269.292L559.704 270.944L558.759 272.488L557.192 272.633L555.414 274.392L554.937 273.681L553.847 273.199L553.984 272.427L555.073 271.861L556.042 269.958L558.622 270.034L559.508 269.292V269.292ZM550.926 140.391L553.234 142.027L554.793 141.973L556.239 142.73L559.069 142.554L564.093 144.312L566.462 144.435L571.373 142.982L577.48 147.898L582.626 150.039L583.541 150.772L584.29 152.301L584.813 157.34L585.751 158.685L587.31 159.618L588.808 161.139L591.063 161.437L593.371 162.897L593.719 165.114L593.182 171.72L590.579 175.978L588.498 177.958L587.461 180.32L587.567 181.956L589.08 183.164L589.27 184.533L587.779 188.485L583.768 192.514L582.792 194.364L582.452 196.795L583.193 202.368L582.542 207.743L582.005 209.134L581.952 216.244L580.28 217.765L577.586 221.664L577.049 224.095L574.718 224.967L574.741 225.563L576.065 226.32L574.854 227.429L574.37 228.507L574.619 230.326L573.984 232.612L575.058 234.959L573.492 236.962L573.59 237.795L575.437 238.911L575.8 240.647L577.177 240.341L579.788 241.411L580.567 241.105L582.785 239.125L583.337 239.232L583.935 240.998L584.639 241.06L585.895 240.15L587.09 240.303L590.405 241.816L590.586 243.445L589.792 245.562L591.411 251.655L590.246 254.843L590.14 256.778L589.603 257.427L585.978 257.336L583.564 259.453L582.633 259.362L581.945 258.742L578.335 261.388L577.767 262.657L574.604 262.855L572.539 266.043L568.399 266.204L566.901 264.66L564.79 263.658L561.377 262.97L560.764 262.198L562.398 258.467L562.467 257.481L561.99 256.992L561.785 256.005L562.058 255.585L562.943 255.516L564.782 256.571L566.016 256.434L567.431 254.591L567.779 252.986L569.209 251.862L568.868 251.724L567.711 252.642L566.349 252.993L566.212 253.98L566.553 254.973L565.864 256.09H564.51L563.556 255.172L562.739 254.889L561.513 255.386L561.452 257.71L560.151 258.696L558.925 261.021L557.147 262.779L556.874 263.895L555.785 265.317L555.384 266.785L554.271 268.138L554.347 271.02L554.074 271.509L553.53 271.655L552.508 270.814L552.304 271.028L553.461 272.152L553.53 273.275L554.687 274.048L554.347 276.158L554.755 277.778L555.3 278.482L557.275 279.468L558.161 278.979L558.713 279.101L558.91 279.659L558.441 280.324L559.054 281.234L560.34 281.303L561.165 282.503L562.451 282.855L562.996 282.641L564.29 283.413L565.501 283.55L566.689 285.033L567.968 285.026L568.445 285.798L567.764 286.501L568.513 287.977L570.972 288.879L572.743 290.935L573.628 290.721L574.12 291.058L575.126 292.548V293.114L576.352 293.749L576.421 294.521H575.876L575.331 294.032L574.514 294.383L574.377 296.279L573.901 296.417L573.356 297.686L573.151 298.81L572.198 299.796L571.585 300.079L571.32 300.782L568.929 302.403L568.861 303.595L568.112 303.809L567.158 305.568L565.592 305.713L563.889 307.892L562.595 308.328L562.187 309.23L561.021 309.291L560.484 309.658L558.244 309.459L557.071 309.857L555.981 311.072L555.709 311.99L553.454 312.762L553.257 313.457L552.5 314.023L551.751 314.589L551.275 314.941L550.934 314.803L551.002 314.015L550.253 313.954L547.945 314.879L547.673 315.59L546.916 315.575L545.894 316.768L544.532 316.699L544.192 316.347L542.421 318.174L541.74 318.526L540.173 319.65L539.629 320.567L539.765 320.988L539.288 321.485L538.607 321.347L538.062 321.699V321.982L538.879 322.119L540.446 321.905L540.582 321.271L542.557 319.864L543.17 318.243L543.579 317.96V319.298L542.83 320.842L543.034 324.007L543.987 324.994L545.486 325.353L545.758 325.766L547.128 325.835L548.142 328.159L547.324 329.634L544.736 329.42L543.783 329.772L542.898 328.579L541.884 328.289L540.854 328.579L541.536 329.42L541.195 329.703L539.288 328.243L536.829 327.669L534.377 328.373L532.394 327.593L531.781 327.883L531.032 327.601L530.828 328.724H529.67L528.512 327.807L528.785 327.318L528.58 326.683L527.423 326.614L527.355 327.18L527.763 327.463L527.218 327.601L520.953 326.668L506.552 325.559L506.28 325.07L506.953 324.222L508.202 324.351L507.233 323.801H506.825L506.492 324.489L505.19 325.559L499.515 324.787L500.4 317.219L502.42 311.087L504.744 306.126L506.151 305.82L513.9 306.638L514.679 306.019L514.172 294.987L512.5 290.048L514.036 286.287L515.247 281.524L513.945 278.619L512.477 277.625L511.849 276.677L512.212 276.058L513.537 275.852L514.331 275.278L515.731 270.248L517.078 267.909L517.441 266.578L516.163 266.303L515.383 265.554L513.037 264.507L511.554 261.762L510.805 257.657L511.062 253.613L512.583 247.198L513.809 246.442L517.26 245.7L517.653 244.874L515.724 235.853L514.528 233.277L515.239 230.67L515.043 228.721L516.019 227.1L516.889 226.274L522.163 223.958L524.365 220.823L526.719 214.356L526.371 211.603L533.386 196.252L535.383 189.441L536.692 186.589L537.169 181.329L536.042 178.837L535.565 175.198L534.922 174.671L531.448 175.122L530.911 174.327L532.916 165.313L532.614 158.31L531.501 151.95L531.464 150.023L531.819 147.156L533.741 142.264L534.316 142.722L535.24 142.08H536.163L539.568 143.77L543.904 140.796L545.001 140.62L547.43 141.377H548.929L550.926 140.391V140.391Z" stroke="#FFFFFA" stroke-opacity="0.25" stroke-width="0.75"/>
<path d="M408.307 315.759L409.124 316.462L408.783 316.951L408.851 317.234L409.26 317.02L408.988 317.723L408.102 317.372L407.83 317.655L407.081 317.165L407.557 316.814L407.489 316.248L408.307 315.759V315.759ZM399.513 309.429L400.459 309.704L400.739 310.766L401.284 311.187L403.744 309.643L405.378 311.049L405.719 312.456L406.945 313.649L408.579 313.511L409.601 312.173L411.303 312.311L411.031 313.152L411.78 314.276L409.805 314.344L407.966 315.116L406.188 314.696L405.779 315.185L406.46 316.103L406.324 316.454L405.439 315.537L404.349 315.468L401.284 313.847L398.832 313.916L398.424 314.268L396.585 314.551L393.308 313.779L391.81 312.724L392.014 311.179L392.559 310.621L399.513 309.429V309.429ZM363.297 306.615L363.705 307.105L363.16 307.456L362.003 307.105L362.071 306.753L363.297 306.615ZM351.159 302.609L352.725 303.45V304.574L352.18 305.063L351.295 304.574V303.657L350.886 303.091V302.602H351.159V302.609ZM353.891 302.258L355.321 302.823L356.146 302.456L356.554 303.389L359.074 304.513L361.185 303.947L362.207 304.582L360.368 305.216L358.802 305.285L357.629 305.851L356.418 303.672L355.328 303.32L353.489 303.458L353.081 302.617L353.891 302.258V302.258ZM360.164 301.83L360.368 302.319L360.096 302.816L359.755 303.167L359.142 302.953L359.687 301.967L360.164 301.83V301.83ZM403.948 301.761L405.446 302.112V304.291L405.787 305.209L407.081 305.843L409.396 308.022L410.622 309.497V310.201L411.167 310.552L410.622 311.325L408.647 311.676L408.239 312.869L406.604 312.8L405.719 310.621L403.653 309.314L401.284 310.797L400.807 309.849L400.195 309.146L400.126 308.588L402.041 305.384L401.738 303.427L401.822 302.189L402.48 301.929L403.948 301.761V301.761ZM372.778 301.478L373.119 302.25L372.165 302.67L371.621 302.105L371.689 301.753L372.778 301.478V301.478ZM385.741 300.637L386.967 301.203L387.58 303.03L391.674 307.25L391.81 307.816L390.925 308.939H390.312L388.337 306.967L387.315 306.684L386.294 305.767L386.362 305.346L385.476 304.995L383.978 302.112L385.741 300.637V300.637ZM402.48 193.072L404.213 193.416L405.651 193.21L407.035 194.341L407.482 193.913L407.951 194.188L408.579 193.928L409.85 194.142L410.683 193.011L411.235 193.026L413.029 193.997L416.124 198.118L417.637 198.523L418.091 199.303L419.43 200.327L420.043 201.505L421.428 201.451L424.047 202.904L425.878 202.644L427.036 201.42L427.966 201.023L429.147 201L429.934 201.68L431.008 207.498L430.123 209.838L430.085 211.833L430.63 213.041L432.514 214.073L432.809 214.677L432.787 215.449L432.083 216.366L431.985 217.131L432.575 219.7L432.28 220.227L431.841 220.265L430.267 218.461L429.275 218.171L428.383 218.56L428.178 220.166L428.92 223.147L427.626 226.817L428.738 227.773L431.553 229.263L432.378 241.534L431.833 243.391L430.146 244.699L429.465 245.7L430.025 248.552L429.813 250.157L428.473 250.738L426.18 250.149L425.552 250.532L425.023 256.174L425.734 256.663L427.157 255.99L428.564 256.059L429.003 256.816L429.427 259.782L430.819 260.982L430.895 263.131L429.752 265.875L430.32 270.776L429.344 272.985L429.306 274.109L430.237 275.516L432.862 276.7L433.725 277.885L434.444 278.122L434.989 279.269L435.851 279.453L436.358 280.653L436.396 283.436L437.418 283.833L442.495 283.696L444.758 284.231L449.124 283.703L449.722 283.933L449.427 286.44L450.918 289.491L451.523 292.441L450.85 293.558L446.567 295.545L444.349 298.16L444.372 298.863L445.394 300.4L445.091 304.245L445.394 305.155L445.976 305.797L447.202 306.057L448.655 305.346L451.447 305.063L453.748 304.245L453.884 303.557L451.281 299.88L451.213 297.992L452.643 292.602L453.362 292.296L454.028 292.977L454.399 292.946L454.944 290.966L455.685 291.448L455.973 290.393L456.994 291.05L458.704 291.211L459.083 291.547L458.243 291.998L459.083 292.266L459.719 293.305L462.7 292.518L463.487 293.336L463.888 292.434L464.705 292.61L465.061 291.731L465.538 291.646L466.378 292.877L464.849 297.678L465.265 297.969L466.605 297.35L467.641 297.564L468.625 298.71L470.313 299.857L471.713 302.212L471.569 302.762L467.725 306.103L467.18 307.105L467.066 308.358L467.588 309.421L468.701 310.43L469.851 310.713L472.901 308.878L482.148 310.01L483.767 313.74L489.859 321.683L492.598 325.972L492.462 326.293L491.577 326.011L491.713 326.576L491.032 326.928L489.806 326.156L485.371 325.598L484.009 325.529L483.873 326.095H483.601L482.375 325.46L481.217 326.446H480.604L480.332 325.888L476.17 325.751L475.489 326.806L474.467 326.737L474.058 326.179L473.514 326.11L473.377 326.599L472.56 326.462L472.083 327.379L471.266 326.959L470.994 327.876L469.155 327.524L469.019 328.09L468.678 328.159L468.406 327.455L467.657 327.387L467.384 328.159H466.975L466.703 327.669L465.886 327.318L461.928 326.752L460.634 325.697L459.136 326.4L457.501 326.332L448.973 324.803L436.495 324.153L435.609 323.595L435.745 322.891L438.205 321.485L439.983 321.347L441.209 320.575L441.89 321.699L442.503 321.982L442.639 322.402L442.299 322.823L442.775 323.243L442.98 321.836L442.367 321.416L441.958 320.43L441.073 320.361L440.392 320.85L439.779 320.567L440.664 319.092L442.231 319.444L442.639 319.023L442.162 319.237L440.8 318.679L440.46 316.989L439.847 316.5L438.825 316.363L437.123 315.101L436.033 312.219L435.965 311.026L435.08 310.392V310.889L435.556 311.309V311.661L435.216 311.653L433.854 310.346V310.04L433.104 309.826L435.632 312.288L435.768 314.115L437.062 316.011L437.743 316.714L439.786 317.28L440.331 317.983L440.195 318.687L437.599 320.583L437.123 320.514L435.897 320.093L435.148 318.97L431.599 318.266L430.305 317.211L429.828 316.301V315.46L429.487 315.246V316.301L429.964 317.288L431.258 318.626L433.922 319.895L433.717 320.46L431.742 320.743L430.585 321.729L430.04 321.446L428.746 321.867L424.72 321.584L423.494 322.073L422.268 323.618L424.523 322.563L425.885 323.128L427.111 322.639L427.52 323.327L428.065 323.342L428.814 324.046L429.835 323.342L429.904 324.183L430.585 324.466L431.538 324.115L432.015 323.342L432.151 324.329L430.789 325.101L429.427 324.887L426.218 325.521L425.537 325.307L422.601 326.362L417.962 326.293L416.26 325.307L414.966 324.046L412.438 320.109L412.575 318.916L413.596 316.951L414.413 316.248L415.299 316.317L419.733 318.916L423.146 318.778L421.239 318.289L419.06 318.503L416.472 316.538L416.267 316.049L416.54 315.766L418.242 315.346L419.877 315.415L420.694 314.574L419.536 315.009L415.374 315.208L414.557 312.892L413.467 311.906L411.016 308.389L406.036 304.452L405.832 302.342L405.227 301.776L403.1 301.638L401.738 302.128L401.398 303.045L401.738 304.452L401.466 306.141L399.491 309.092L397.992 309.306L396.698 308.886L396.358 309.306L394.042 309.375L393.906 308.603L392.748 308.251L390.978 305.086L389.82 304.245L388.458 302.556L387.777 302.273L387.64 301.004H386.959L386.006 300.232L381.844 299.88L380.959 298.756L380.073 298.894L379.937 299.391L378.847 299.46L377.962 298.756H377.077L376.736 299.108L376.396 298.267L376.055 298.198H372.574L372.234 297.984L372.302 297.564L373.664 297.632L374.141 297.067L374.072 296.295L372.847 295.522L372.915 295.102L372.302 295.943L373.058 295.905L373.603 296.272L373.792 297.059L372.506 297.135L370.259 298.122L369.577 296.853L369.509 295.729L368.76 294.957L367.534 294.819L366.649 293.764L366.24 292.495L365.083 291.929L364.878 292.35L365.9 292.633L366.989 295.094L368.692 295.866V296.57L367.33 297.135L366.778 296.501L365.839 296.417L365.355 296.929V297.701L365.695 297.839L365.423 298.19L364.061 297.839L364.197 296.853L363.72 296.287H361.745L361.269 296.432V295.369L360.928 295.018L359.907 295.652L360.383 295.935L360.928 295.369V296.493L361.541 296.845L362.018 296.562L363.244 296.845L363.652 298.038L364.878 298.527H366.308L366.989 298.175L364.674 301.623L362.767 301.34L361.813 301.554L361.201 301.134L359.43 301.065L358.817 301.837L357.863 301.975L356.025 300.851L353.845 300.568L352.415 301.761L352.619 302.602L351.938 302.67L350.372 301.684L348.253 301.195L347.299 301.684L346.55 301.264L346.618 301.83L347.708 302.181L348.866 301.623L349.615 302.395L349.547 303.381L348.457 303.45L348.321 303.871L347.572 304.222H348.389L349.002 303.802L349.411 304.291L349.343 305.698L349.615 305.835L350.16 305.553L350.637 304.566L352.067 305.69H352.952L353.838 304.566L354.859 304.284L355.745 305.904L358.204 307.38L359.702 307.311L360.111 306.608L360.928 306.325L361.677 306.814L362.29 308.007L363.176 308.144L364.061 307.372L363.857 306.248L365.975 305.339L366.997 303.794L367.542 303.725L367.678 304.291H368.155L369.313 303.871L369.244 303.519L369.653 303.381L371.492 303.733L375.518 301.975H376.403L377.901 303.45L379.604 303.664L380.285 304.65L380.149 305.706L380.762 305.637L381.988 306.623L383.69 308.802L385.052 309.788L388.193 313.794L387.784 314.283L387.239 314.199L385.945 313.297L384.992 313.159H383.221L380.353 313.794L378.106 312.739L377.493 311.546L376.676 311.195L375.041 311.332L373.406 312.456L376.343 311.47L378.794 313.794L380.429 314.428H383.774L385.272 315.346L387.663 315.766L390.932 315.483L392.499 316.607L393.043 317.525L394.269 318.022L394.814 318.939L396.449 318.45L397.947 318.801L398.356 319.222L400.399 319.084L401.08 319.719H401.693L402.51 320.56L402.306 320.843L401.693 320.628L401.829 321.332L403.804 323.794L404.689 323.656L404.758 323.021L404.417 322.739L404.689 322.318L407.073 321.546L407.482 324.076L407.754 324.428L408.367 324.29V324.856H405.022L396.91 321.974L383.342 319.092L371.204 316.072L352.453 312.487L342.222 311.363L333.966 308.763L333.837 307.525L333.05 306.508L328.578 305.01L326.671 303.909L325.105 302.281L325.423 300.69L326.482 299.482L327.905 298.81L329.622 298.557L331.59 296.822L334.322 295.553L338.211 291.608L339.611 290.683L341.162 287.472L342.842 285.439L346.074 284.139L346.369 283.306L346.18 281.976L344.583 280.959L343.849 279.46L343.713 276.441L347.519 268.589L351.325 262.817L354.027 255.585L355.767 254.079L356.88 252.244L357.061 246.625L358.128 243.292L358.628 238.323L359.528 236.427L358.998 233.201L359.528 231.503L360.875 230.418L362.941 230.609L363.667 230.181L366.066 225.28L367.111 224.256L367.898 222.245L369.01 221.06L373.77 219.631L379.12 219.325L381.821 218.453L382.419 217.964L383.902 214.058L386.241 212.307L387.133 208.974L389.555 205.969L391.144 204.731L393.043 203.836L394.519 201.711L396.267 200.748L399.854 199.677L401.125 198.737L403.274 194.96L402.48 193.072V193.072Z" stroke="#FFFFFA" stroke-opacity="0.25" stroke-width="0.75"/>
</g>
<defs>
<clipPath id="clip0_28:255">
<rect width="600" height="330" fill="white"/>
</clipPath>
</defs>
</svg>
