<?xml version="1.0" encoding="UTF-8"?>
<svg xmlns="http://www.w3.org/2000/svg" xmlns:xlink="http://www.w3.org/1999/xlink" viewBox="0 0 24 24" width="24px" height="24px">
<g id="surface15744780">
<path style=" stroke:none;fill-rule:nonzero;fill:rgb(100%,100%,100%);fill-opacity:1;" d="M 8.238281 3.386719 C 7.917969 3.351562 7.59375 3.390625 7.285156 3.507812 C 6.367188 3.859375 5.167969 4.40625 4.121094 5.253906 L 4.09375 5.273438 L 4.070312 5.296875 C 3.605469 5.726562 3.347656 6.242188 3.023438 6.949219 C 2.699219 7.660156 2.371094 8.53125 2.074219 9.511719 C 1.476562 11.480469 1 13.871094 1 16.164062 C 1 16.402344 1.0625 16.652344 1.1875 16.871094 C 1.992188 18.296875 3.386719 19.089844 4.628906 19.5625 C 5.859375 20.035156 6.902344 20.195312 7.5 20.214844 C 7.519531 20.21875 7.570312 20.222656 7.570312 20.222656 C 7.976562 20.222656 8.507812 20.074219 8.804688 19.511719 L 9.726562 17.765625 C 11.253906 18.035156 12.699219 18.03125 14.265625 17.75 L 15.191406 19.507812 C 15.492188 20.078125 16.027344 20.222656 16.429688 20.222656 C 16.429688 20.222656 16.476562 20.21875 16.496094 20.214844 C 17.089844 20.195312 18.136719 20.035156 19.371094 19.5625 C 20.609375 19.085938 22.003906 18.296875 22.808594 16.875 C 22.9375 16.652344 23 16.402344 23 16.164062 C 23 13.871094 22.523438 11.476562 21.921875 9.507812 C 21.625 8.527344 21.296875 7.648438 20.964844 6.9375 C 20.636719 6.230469 20.375 5.707031 19.90625 5.277344 L 19.882812 5.253906 L 19.855469 5.234375 C 18.820312 4.398438 17.628906 3.855469 16.710938 3.503906 C 16.101562 3.273438 15.410156 3.355469 14.867188 3.726562 C 14.449219 4.015625 14.308594 4.515625 14.195312 5 L 9.800781 5 C 9.691406 4.515625 9.550781 4.015625 9.132812 3.726562 C 8.863281 3.542969 8.554688 3.425781 8.234375 3.386719 Z M 8 5.375 C 8 6.261719 8.738281 7 9.625 7 L 14.371094 7 C 15.257812 7 16 6.257812 16 5.375 C 16.789062 5.675781 17.796875 6.15625 18.5625 6.765625 C 18.582031 6.789062 18.878906 7.191406 19.152344 7.777344 C 19.429688 8.382812 19.734375 9.183594 20.007812 10.089844 C 20.546875 11.855469 20.949219 14.027344 20.972656 15.992188 C 20.492188 16.742188 19.601562 17.332031 18.65625 17.695312 C 17.804688 18.023438 17.097656 18.105469 16.734375 18.144531 L 16.273438 17.269531 C 16.617188 17.167969 16.957031 17.070312 17.320312 16.945312 C 17.664062 16.835938 17.921875 16.550781 17.996094 16.195312 C 18.070312 15.84375 17.945312 15.476562 17.671875 15.238281 C 17.398438 15.003906 17.019531 14.929688 16.679688 15.050781 C 12.847656 16.347656 10.964844 16.347656 7.332031 15.058594 C 7.207031 15.011719 7.074219 14.992188 6.941406 14.996094 C 6.460938 15.019531 6.066406 15.378906 6 15.855469 C 5.933594 16.332031 6.210938 16.785156 6.664062 16.941406 C 7.03125 17.070312 7.375 17.175781 7.71875 17.28125 L 7.261719 18.144531 C 6.902344 18.105469 6.195312 18.019531 5.34375 17.695312 C 4.398438 17.332031 3.507812 16.746094 3.027344 15.992188 C 3.050781 14.027344 3.453125 11.855469 3.984375 10.09375 C 4.261719 9.1875 4.5625 8.386719 4.839844 7.785156 C 5.109375 7.199219 5.40625 6.800781 5.414062 6.785156 C 6.195312 6.167969 7.210938 5.675781 8 5.375 Z M 9.039062 9.996094 C 8.210938 9.996094 7.539062 10.890625 7.539062 11.992188 C 7.539062 13.09375 8.210938 13.988281 9.039062 13.988281 C 9.867188 13.988281 10.539062 13.09375 10.539062 11.992188 C 10.519531 10.890625 9.871094 9.886719 9.039062 9.996094 Z M 14.996094 10.011719 C 14.167969 10.011719 13.496094 10.90625 13.496094 12.011719 C 13.496094 13.117188 14.167969 14.011719 14.996094 14.011719 C 15.824219 14.011719 16.496094 13.117188 16.496094 12.011719 C 16.496094 10.90625 15.824219 10.011719 14.996094 10.011719 Z M 14.996094 10.011719 "/>
</g>
</svg>
